<svg xmlns="http://www.w3.org/2000/svg" viewBox="0 0 45.47 25.42"><defs><style>.cls-1{font-size:21px;font-family:MyriadPro-Regular, Myriad Pro;}.cls-2{letter-spacing:0em;}.cls-3{fill:#fdc500;}</style></defs><title>eatly_new</title><g id="Layer_2" data-name="Layer 2"><g id="Layer_1-2" data-name="Layer 1"><text class="cls-1" transform="translate(0 17.58)">e<tspan class="cls-2" x="10.52" y="0">a</tspan><tspan x="20.56" y="0">tly</tspan></text><path class="cls-3" d="M2,21.79c.06.41.42.63.75.8A6.46,6.46,0,0,0,3.77,23,17.32,17.32,0,0,0,6,23.48c1.52.25,3.05.42,4.59.54,3.07.23,6.15.37,9.23.4s6.17,0,9.24-.19a41.12,41.12,0,0,0,4.58-.51,13.92,13.92,0,0,0,2.23-.53,4.83,4.83,0,0,0,1-.5,1.22,1.22,0,0,0,.62-.9,1.31,1.31,0,0,1-.53,1,4.81,4.81,0,0,1-1,.62,13.67,13.67,0,0,1-2.23.77,38,38,0,0,1-4.61.79,74.46,74.46,0,0,1-9.32.43,82.87,82.87,0,0,1-9.31-.64A45.26,45.26,0,0,1,5.92,24a17.46,17.46,0,0,1-2.23-.7,5.83,5.83,0,0,1-1.06-.53A1.24,1.24,0,0,1,2,21.79Z"/></g></g></svg>