<svg width="1152" height="700" viewBox="0 0 1152 700" fill="none" xmlns="http://www.w3.org/2000/svg">
<rect width="1152" height="700" fill="#EDE5C7"/>
<path fill-rule="evenodd" clip-rule="evenodd" d="M224.576 367.911C254.449 371.998 286.596 376.166 307.964 401.189C328.211 424.9 321.336 464.553 333.242 495.168C347.713 532.377 389.031 557.813 384.681 598.444C380.387 638.552 345.388 667.386 313.308 681.356C284.633 693.843 255.075 670.414 224.576 668.164C196.939 666.125 166.952 686.316 143.539 668.831C119.931 651.201 118.769 612.234 108.543 581.509C97.4632 548.217 78.3084 517.476 81.3164 481.875C84.7068 441.748 97.59 398.787 125.884 376.279C153.937 353.962 190.991 363.317 224.576 367.911Z" fill="#FEE280"/>
<path fill-rule="evenodd" clip-rule="evenodd" d="M900.118 436.86C943.784 428.987 993.621 427.644 1033.03 441.666C1074.06 456.269 1103.59 483.323 1111.62 512.124C1119.2 539.287 1093.9 564.669 1074.26 589.426C1057.37 610.723 1035.99 629.628 1006.4 644.767C974.962 660.86 940.78 676.101 900.118 678.552C857.015 681.15 814.839 672.187 777.586 658.562C737.265 643.814 694.465 626.138 681.057 598.429C667.743 570.916 682.02 539.684 708.669 516.144C732.028 495.511 779.898 495.228 813.769 481.201C845.643 468.001 863.271 443.504 900.118 436.86Z" fill="#FEE280"/>
<path fill-rule="evenodd" clip-rule="evenodd" d="M538.179 232.516C491.501 228.962 434.366 242.876 406.455 206.204C374.014 163.578 377.98 101.987 408.481 62.1036C438.723 22.5591 497.083 18.3127 550.697 17.5922C603.963 16.8763 660.264 21.7642 699.416 58.1936C741.236 97.1054 780.454 160.659 752.25 205.13C724.833 248.362 650.737 213.709 596.376 220.663C575.578 223.324 559.412 234.132 538.179 232.516Z" fill="#FEE280"/>
</svg>
